<svg id="svg" version="1.1" xmlns="http://www.w3.org/2000/svg" xmlns:xlink="http://www.w3.org/1999/xlink" width="400" height="400" viewBox="0, 0, 400,400"><g id="svgg"><path id="path0" d="M242.100 71.907 C 241.605 71.989,241.200 72.203,241.200 72.382 C 241.200 72.562,240.383 72.832,239.385 72.981 C 238.386 73.131,236.952 73.512,236.198 73.827 C 235.443 74.142,234.301 74.400,233.659 74.400 C 233.017 74.400,231.616 74.655,230.546 74.967 C 227.725 75.788,219.086 76.829,210.600 77.371 C 208.620 77.497,205.020 77.771,202.600 77.980 C 200.180 78.189,195.860 78.376,193.000 78.397 C 190.140 78.418,186.450 78.609,184.800 78.821 C 183.150 79.034,179.640 79.373,177.000 79.575 C 174.360 79.776,171.660 80.120,171.000 80.339 C 170.340 80.557,168.810 80.852,167.600 80.994 C 166.390 81.136,164.590 81.495,163.600 81.791 C 157.697 83.561,155.682 84.222,154.700 84.711 C 153.055 85.530,152.250 85.202,151.962 83.596 C 149.632 70.608,131.200 71.633,131.200 84.750 C 131.200 89.400,133.002 92.247,137.308 94.397 C 138.969 95.227,139.996 96.800,138.876 96.800 C 138.435 96.800,135.543 101.256,134.073 104.200 C 132.994 106.362,132.332 108.024,130.808 112.400 C 128.267 119.695,128.954 133.405,132.203 140.260 C 132.531 140.954,132.800 141.787,132.800 142.111 C 132.800 142.436,133.070 142.926,133.400 143.200 C 133.730 143.474,134.000 143.846,134.000 144.028 C 134.000 144.385,136.783 149.273,137.173 149.600 C 137.304 149.710,138.199 150.790,139.163 152.000 C 143.845 157.878,147.312 159.782,144.800 155.096 C 144.360 154.275,144.000 153.293,144.000 152.915 C 144.000 152.536,143.749 151.501,143.443 150.613 C 141.097 143.815,141.983 126.919,144.849 123.820 C 145.042 123.611,145.203 123.161,145.207 122.820 C 145.210 122.479,145.743 121.210,146.391 120.000 C 147.038 118.790,147.754 117.385,147.982 116.879 C 149.856 112.710,158.484 104.076,163.283 101.566 C 167.782 99.214,172.947 96.795,175.600 95.796 C 176.590 95.424,177.941 94.891,178.602 94.613 C 179.262 94.335,180.400 93.976,181.129 93.816 C 181.857 93.656,182.937 93.273,183.527 92.965 C 184.117 92.657,184.984 92.404,185.454 92.402 C 185.924 92.401,186.824 92.131,187.454 91.802 C 188.084 91.474,189.011 91.204,189.513 91.202 C 190.015 91.201,191.023 90.950,191.754 90.645 C 192.484 90.340,193.827 89.964,194.739 89.810 C 195.650 89.656,196.488 89.382,196.600 89.200 C 196.712 89.018,197.568 88.748,198.502 88.598 C 199.436 88.449,201.010 88.087,202.000 87.793 C 202.990 87.500,204.790 86.989,206.000 86.658 C 207.210 86.327,209.383 85.684,210.828 85.228 C 212.274 84.773,213.738 84.400,214.082 84.400 C 214.427 84.400,215.224 84.131,215.854 83.802 C 216.484 83.474,217.333 83.204,217.740 83.202 C 218.146 83.201,219.046 82.959,219.740 82.664 C 220.433 82.369,222.350 81.699,224.000 81.175 C 225.650 80.651,227.355 79.992,227.789 79.711 C 228.223 79.430,228.838 79.200,229.155 79.200 C 229.472 79.200,231.059 78.570,232.681 77.800 C 234.303 77.030,235.894 76.400,236.215 76.400 C 236.537 76.400,236.800 76.223,236.800 76.008 C 236.800 75.792,237.282 75.494,237.870 75.347 C 238.459 75.199,239.700 74.565,240.628 73.939 C 241.557 73.313,242.504 72.800,242.734 72.800 C 243.267 72.800,243.713 72.104,243.307 71.907 C 243.138 71.826,242.595 71.826,242.100 71.907 M122.088 78.461 C 121.847 79.045,121.469 79.634,121.248 79.770 C 121.027 79.907,120.730 80.869,120.589 81.909 C 120.447 82.949,120.100 84.520,119.817 85.400 C 119.534 86.280,118.978 88.080,118.582 89.400 C 117.828 91.910,115.656 97.722,114.321 100.800 C 113.032 103.772,111.444 107.057,103.105 124.000 C 94.300 141.888,94.508 141.450,92.978 145.400 C 91.254 149.853,90.375 152.471,89.981 154.327 C 89.779 155.276,89.506 156.228,89.374 156.441 C 89.242 156.655,88.883 158.385,88.575 160.287 C 87.870 164.638,87.880 164.630,84.458 164.064 C 71.621 161.944,65.612 178.411,77.023 184.441 C 80.353 186.201,86.566 185.610,88.436 183.356 C 89.515 182.057,90.314 182.744,92.177 186.574 C 96.589 195.644,102.650 201.669,113.000 207.272 C 120.262 211.203,134.704 212.399,143.286 209.780 C 145.278 209.172,149.573 207.257,149.181 207.151 C 149.081 207.125,147.380 206.871,145.400 206.588 C 116.415 202.445,101.258 174.414,110.651 142.325 C 110.953 141.294,111.199 140.034,111.198 139.525 C 111.197 139.016,111.453 137.790,111.766 136.800 C 112.080 135.810,112.722 133.470,113.193 131.600 C 113.664 129.730,114.298 127.300,114.602 126.200 C 115.462 123.084,116.059 120.791,116.632 118.400 C 116.922 117.190,117.432 115.120,117.766 113.800 C 118.101 112.480,118.573 110.500,118.817 109.400 C 119.060 108.300,119.501 106.410,119.796 105.200 C 121.966 96.293,123.863 74.163,122.088 78.461 M244.466 81.642 C 240.259 83.613,238.381 86.571,238.090 91.684 C 237.915 94.750,237.798 95.206,237.243 94.981 C 234.353 93.807,222.288 94.677,217.200 96.427 C 212.936 97.893,212.179 98.212,209.906 99.500 C 208.644 100.215,207.506 100.800,207.376 100.800 C 206.051 100.800,198.267 108.003,195.312 111.963 C 191.024 117.710,186.800 127.822,186.800 132.342 C 186.800 133.428,187.541 133.834,187.863 132.925 C 189.193 129.170,198.766 120.989,205.600 117.767 C 212.787 114.378,226.516 112.596,232.045 114.334 C 232.790 114.569,234.750 115.157,236.400 115.642 C 238.050 116.127,239.850 116.750,240.400 117.026 C 240.950 117.303,242.390 118.016,243.600 118.611 C 246.715 120.142,255.518 126.157,256.800 127.630 C 256.910 127.756,258.530 129.183,260.400 130.800 C 262.270 132.417,268.390 138.254,274.000 143.771 C 285.914 155.488,289.564 158.952,293.431 162.213 C 299.959 167.718,299.370 167.288,309.120 173.673 C 310.598 174.642,312.400 175.169,312.400 174.633 C 312.400 174.541,310.091 172.156,307.268 169.333 C 302.569 164.633,297.560 158.614,294.000 153.392 C 293.230 152.263,290.458 148.113,287.840 144.169 C 273.673 122.828,269.776 117.137,267.600 114.612 C 263.208 109.515,260.026 106.247,257.460 104.200 C 253.885 101.347,253.951 101.596,256.180 99.399 C 264.805 90.896,255.339 76.546,244.466 81.642 " stroke="none" fill="#ef5e26" fill-rule="evenodd"></path><path id="path1" d="M233.600 206.272 C 233.600 206.728,233.870 207.326,234.200 207.600 C 234.530 207.874,234.800 208.666,234.800 209.360 C 234.800 210.054,235.043 210.977,235.341 211.411 C 235.639 211.845,236.002 213.522,236.147 215.138 C 236.293 216.754,236.590 218.407,236.806 218.812 C 237.335 219.800,237.310 227.847,236.775 228.847 C 236.541 229.283,236.245 230.891,236.117 232.419 C 235.984 234.008,235.652 235.391,235.342 235.648 C 235.044 235.896,234.800 236.693,234.800 237.420 C 234.800 238.148,234.530 239.013,234.200 239.343 C 233.870 239.673,233.600 240.211,233.600 240.539 C 233.600 241.277,231.714 245.082,231.187 245.408 C 230.974 245.540,230.800 246.002,230.800 246.436 C 230.800 246.870,230.530 247.329,230.200 247.455 C 229.870 247.582,229.600 247.866,229.600 248.086 C 229.600 249.825,217.883 261.200,216.092 261.200 C 215.889 261.200,215.307 261.560,214.800 262.000 C 214.293 262.440,213.564 262.800,213.182 262.800 C 212.799 262.800,212.382 263.070,212.255 263.400 C 212.129 263.730,211.564 264.000,211.000 264.000 C 210.436 264.000,209.878 264.252,209.760 264.561 C 209.641 264.869,208.927 265.237,208.172 265.379 C 207.418 265.520,206.800 265.794,206.800 265.986 C 206.800 266.179,206.215 266.464,205.500 266.619 C 204.785 266.775,203.845 267.149,203.411 267.451 C 202.977 267.753,202.144 268.000,201.560 268.000 C 200.976 268.000,200.274 268.270,200.000 268.600 C 199.726 268.930,199.024 269.200,198.440 269.200 C 197.856 269.200,197.001 269.464,196.540 269.787 C 196.079 270.110,194.914 270.497,193.951 270.648 C 192.988 270.798,192.084 271.099,191.943 271.315 C 191.801 271.532,190.721 271.799,189.543 271.909 C 188.344 272.021,187.259 272.349,187.080 272.654 C 186.888 272.982,186.068 273.200,185.029 273.200 C 184.049 273.200,183.100 273.438,182.842 273.749 C 182.591 274.052,181.501 274.416,180.419 274.560 C 179.337 274.703,177.945 275.085,177.326 275.408 C 176.707 275.731,175.570 276.002,174.800 276.010 C 174.030 276.019,173.051 276.290,172.624 276.613 C 172.196 276.936,171.184 277.200,170.373 277.200 C 169.550 277.200,168.678 277.465,168.400 277.800 C 168.126 278.130,167.339 278.406,166.651 278.414 C 165.963 278.421,164.680 278.775,163.800 279.200 C 162.920 279.625,161.637 279.979,160.949 279.986 C 160.261 279.994,159.474 280.270,159.200 280.600 C 158.926 280.930,158.139 281.206,157.451 281.213 C 156.763 281.220,155.851 281.490,155.424 281.813 C 154.996 282.136,154.274 282.400,153.818 282.400 C 153.361 282.400,152.316 282.760,151.496 283.200 C 150.675 283.640,149.719 284.000,149.373 284.000 C 149.026 284.000,148.473 284.270,148.143 284.600 C 147.813 284.930,147.128 285.200,146.620 285.200 C 146.113 285.200,145.474 285.470,145.200 285.800 C 144.926 286.130,144.409 286.401,144.051 286.403 C 143.693 286.404,142.860 286.763,142.200 287.200 C 141.540 287.637,140.704 287.996,140.343 287.997 C 139.981 287.999,139.587 288.256,139.467 288.569 C 139.347 288.882,138.833 289.217,138.324 289.315 C 137.641 289.445,137.747 289.505,138.729 289.546 C 139.459 289.575,140.327 289.330,140.657 289.000 C 140.988 288.669,141.967 288.400,142.841 288.400 C 143.713 288.400,145.095 288.115,145.913 287.766 C 146.731 287.417,148.840 287.034,150.600 286.913 C 152.360 286.793,154.050 286.495,154.357 286.251 C 154.687 285.988,157.283 285.755,160.757 285.677 C 164.728 285.588,167.004 285.363,167.860 284.973 C 168.850 284.523,171.326 284.400,179.373 284.400 C 187.096 284.400,189.946 284.266,190.923 283.858 C 191.695 283.535,194.809 283.195,198.611 283.019 C 202.125 282.856,205.105 282.553,205.233 282.346 C 205.361 282.140,207.068 281.857,209.027 281.719 C 211.154 281.569,212.805 281.253,213.123 280.934 C 213.417 280.640,214.414 280.400,215.340 280.400 C 216.265 280.400,217.386 280.145,217.831 279.833 C 218.277 279.521,219.352 279.135,220.220 278.975 C 221.089 278.815,221.917 278.505,222.059 278.285 C 222.345 277.845,225.571 277.257,226.325 277.508 C 226.586 277.595,226.800 278.260,226.800 278.984 C 226.800 279.709,227.051 280.510,227.358 280.765 C 227.665 281.020,228.030 281.835,228.169 282.576 C 228.308 283.317,228.687 284.024,229.011 284.149 C 229.335 284.273,229.600 284.608,229.600 284.893 C 229.600 285.177,229.931 285.588,230.335 285.805 C 235.540 288.603,237.416 288.945,240.200 287.600 C 241.080 287.175,241.966 286.821,242.169 286.814 C 242.787 286.791,246.000 283.228,246.000 282.564 C 246.000 282.223,246.270 281.673,246.600 281.343 C 247.410 280.533,247.440 275.497,246.639 274.833 C 246.331 274.577,245.966 273.920,245.829 273.373 C 245.525 272.163,242.556 269.200,241.648 269.200 C 238.979 269.200,238.477 266.106,240.764 263.756 C 241.383 263.120,242.016 262.195,242.171 261.700 C 242.327 261.205,242.601 260.800,242.780 260.800 C 242.960 260.800,243.212 260.485,243.342 260.100 C 243.471 259.715,243.739 259.130,243.937 258.800 C 244.652 257.607,246.000 254.366,246.000 253.838 C 246.000 253.541,246.270 253.074,246.600 252.800 C 246.947 252.512,247.200 251.640,247.200 250.731 C 247.200 249.867,247.501 248.584,247.870 247.880 C 248.842 246.022,248.827 230.809,247.852 229.000 C 247.496 228.340,247.204 227.147,247.202 226.349 C 247.201 225.550,246.930 224.674,246.600 224.400 C 246.270 224.126,246.000 223.643,246.000 223.326 C 246.000 222.586,244.067 218.489,243.575 218.184 C 243.369 218.057,243.200 217.603,243.200 217.176 C 243.200 216.749,243.022 216.400,242.805 216.400 C 242.588 216.400,242.154 215.815,241.841 215.100 C 240.716 212.535,233.600 204.911,233.600 206.272 M133.406 322.667 C 128.164 324.275,125.819 327.464,125.808 333.000 C 125.795 338.812,127.972 341.366,135.000 343.787 C 140.746 345.766,142.378 346.980,141.788 348.838 C 140.968 351.422,136.025 351.059,133.080 348.198 C 131.298 346.469,131.085 346.469,128.456 348.200 C 127.287 348.970,126.194 349.600,126.027 349.600 C 123.911 349.600,124.238 352.167,126.659 354.554 C 137.476 365.218,156.686 356.072,150.305 343.295 C 149.423 341.529,145.947 338.013,145.057 337.986 C 144.806 337.979,143.880 337.625,143.000 337.200 C 142.120 336.775,141.165 336.421,140.878 336.414 C 138.655 336.356,135.200 333.870,135.200 332.328 C 135.200 330.107,139.243 329.917,141.907 332.013 C 143.349 333.147,143.604 333.057,146.537 330.370 C 149.128 327.995,149.176 327.914,148.633 326.870 C 146.774 323.290,138.669 321.053,133.406 322.667 M164.077 322.844 C 155.333 325.614,153.875 337.692,161.776 341.912 C 163.604 342.888,167.328 344.396,167.916 344.398 C 169.652 344.404,173.175 347.078,173.188 348.400 C 173.218 351.322,165.612 351.012,164.014 348.026 C 163.315 346.720,162.175 346.666,160.111 347.842 C 157.299 349.445,155.600 350.771,155.600 351.365 C 155.600 352.669,160.731 357.600,162.087 357.600 C 162.381 357.600,163.067 357.915,163.611 358.300 C 165.297 359.493,174.031 359.306,176.357 358.026 C 182.199 354.813,184.248 348.464,181.221 342.957 C 179.401 339.646,177.411 338.343,170.323 335.820 C 166.719 334.536,165.424 332.607,167.131 331.062 C 168.234 330.065,170.025 330.262,172.159 331.615 C 173.445 332.431,174.343 332.745,174.890 332.571 C 175.974 332.227,180.000 328.176,180.000 327.429 C 180.000 326.773,177.637 324.405,176.980 324.402 C 176.749 324.401,176.357 324.197,176.108 323.948 C 174.272 322.112,168.160 321.551,164.077 322.844 M189.185 323.228 C 188.176 325.113,188.861 349.528,189.984 351.727 C 195.234 362.004,214.480 361.789,219.248 351.400 C 220.038 349.679,220.409 324.064,219.661 322.885 C 219.421 322.507,218.232 322.401,215.167 322.485 L 211.000 322.600 210.800 335.000 C 210.581 348.584,210.645 348.233,208.023 350.220 C 206.511 351.366,202.628 351.304,200.949 350.107 C 198.510 348.369,198.400 347.712,198.400 334.920 C 198.400 326.462,198.271 323.231,197.920 322.880 C 196.996 321.956,189.710 322.247,189.185 323.228 M228.845 322.946 C 228.519 323.339,228.421 328.419,228.496 341.046 L 228.600 358.600 233.200 358.600 L 237.800 358.600 237.897 352.600 C 238.033 344.154,237.485 344.968,243.236 344.679 C 248.559 344.411,250.233 343.846,252.701 341.486 C 258.787 335.664,255.569 324.632,247.266 322.852 C 244.100 322.173,229.424 322.248,228.845 322.946 M245.868 331.697 C 246.904 332.733,246.776 335.128,245.636 336.052 C 244.384 337.065,238.622 337.156,238.243 336.167 C 237.813 335.048,237.984 331.776,238.500 331.248 C 239.273 330.457,244.976 330.805,245.868 331.697 " stroke="none" fill="#86badd" fill-rule="evenodd"></path><path id="path2" d="M0.000 200.000 L 0.000 400.000 200.000 400.000 L 400.000 400.000 400.000 200.000 L 400.000 0.000 200.000 0.000 L 0.000 0.000 0.000 200.000 M246.387 70.700 C 246.352 71.486,238.802 75.687,233.000 78.149 C 231.020 78.989,228.860 79.915,228.200 80.207 C 227.540 80.499,224.930 81.407,222.400 82.223 C 219.870 83.040,217.170 83.949,216.400 84.242 C 215.630 84.535,214.323 84.891,213.496 85.033 C 212.668 85.175,211.893 85.450,211.772 85.645 C 211.651 85.840,211.234 86.000,210.844 86.000 C 210.454 86.000,208.889 86.366,207.367 86.814 C 205.845 87.261,203.700 87.867,202.600 88.161 C 201.500 88.455,199.430 89.007,198.000 89.388 C 189.327 91.700,174.691 96.396,172.495 97.572 C 172.113 97.776,170.270 98.688,168.400 99.598 C 160.513 103.435,156.518 106.502,151.895 112.270 C 141.998 124.617,139.549 144.757,146.419 157.295 C 146.629 157.677,146.800 158.262,146.800 158.595 C 146.800 161.892,137.457 151.998,133.745 144.771 C 131.085 139.591,130.158 136.780,129.193 130.966 C 128.354 125.908,128.233 122.537,128.787 119.600 C 128.973 118.610,129.307 116.800,129.529 115.578 C 130.578 109.803,133.659 102.767,137.116 98.258 C 138.518 96.430,138.790 95.845,138.356 95.591 C 132.353 92.077,131.087 90.344,130.868 85.339 C 130.639 80.106,132.250 77.183,136.666 74.816 C 142.675 71.595,152.340 76.817,152.391 83.313 C 152.402 84.667,153.293 85.089,154.503 84.312 C 154.996 83.996,156.750 83.325,158.400 82.823 C 160.050 82.320,162.120 81.674,163.000 81.389 C 163.880 81.103,165.500 80.754,166.600 80.613 C 167.700 80.472,169.140 80.194,169.800 79.996 C 172.096 79.305,183.913 78.314,200.600 77.413 C 207.200 77.057,214.310 76.588,216.400 76.372 C 225.765 75.400,227.855 75.123,229.943 74.580 C 231.167 74.261,232.519 74.000,232.949 74.000 C 233.713 74.000,237.010 73.148,239.400 72.333 C 240.060 72.108,241.410 71.742,242.400 71.520 C 243.390 71.298,244.371 70.955,244.580 70.758 C 245.040 70.324,246.405 70.281,246.387 70.700 M122.830 84.994 C 121.809 95.979,121.576 98.114,121.360 98.464 C 121.233 98.670,120.884 100.224,120.585 101.919 C 119.858 106.029,118.825 110.584,117.572 115.200 C 117.303 116.190,116.852 117.990,116.571 119.200 C 116.289 120.410,115.667 122.840,115.188 124.600 C 114.709 126.360,114.159 128.577,113.965 129.527 C 113.772 130.476,113.501 131.437,113.362 131.661 C 113.224 131.885,112.853 133.178,112.538 134.534 C 111.264 140.019,110.847 141.908,110.402 144.200 C 110.146 145.520,109.694 147.770,109.398 149.200 C 107.340 159.124,107.994 173.253,110.784 179.179 C 116.242 190.771,122.196 197.306,131.800 202.246 C 135.570 204.185,142.503 206.397,144.835 206.404 C 155.137 206.438,145.162 210.704,133.000 211.467 C 116.342 212.511,99.745 202.417,91.966 186.510 C 90.156 182.810,89.831 182.474,88.875 183.314 C 86.100 185.751,80.512 186.421,77.317 184.700 C 65.728 178.455,71.197 161.414,84.006 163.856 C 85.433 164.128,86.744 164.362,86.920 164.375 C 87.439 164.415,88.400 161.741,88.400 160.259 C 88.400 159.507,88.661 158.016,88.980 156.946 C 90.847 150.690,91.774 147.731,92.036 147.200 C 92.198 146.870,92.718 145.610,93.190 144.400 C 94.432 141.215,94.408 141.266,102.919 124.000 C 109.717 110.211,111.662 106.176,114.198 100.600 C 115.437 97.874,116.400 95.474,116.400 95.110 C 116.400 94.896,116.656 94.154,116.969 93.460 C 117.802 91.614,119.586 85.693,120.724 81.000 C 120.938 80.120,121.339 78.770,121.617 78.000 C 121.894 77.230,122.213 76.330,122.326 76.000 C 122.847 74.470,123.208 80.920,122.830 84.994 M253.513 81.764 C 260.447 85.308,261.748 93.910,256.180 99.399 C 253.951 101.596,253.885 101.347,257.460 104.200 C 260.026 106.247,263.208 109.515,267.600 114.612 C 269.776 117.137,273.673 122.828,287.840 144.169 C 290.458 148.113,293.230 152.263,294.000 153.392 C 297.560 158.614,302.569 164.633,307.268 169.333 C 310.091 172.156,312.400 174.541,312.400 174.633 C 312.400 175.169,310.598 174.642,309.120 173.673 C 299.370 167.288,299.959 167.718,293.431 162.213 C 289.564 158.952,285.914 155.488,274.000 143.771 C 268.390 138.254,262.270 132.417,260.400 130.800 C 258.530 129.183,256.910 127.756,256.800 127.630 C 255.518 126.157,246.715 120.142,243.600 118.611 C 242.390 118.016,240.950 117.303,240.400 117.026 C 239.850 116.750,238.050 116.127,236.400 115.642 C 234.750 115.157,232.790 114.569,232.045 114.334 C 226.516 112.596,212.787 114.378,205.600 117.767 C 198.766 120.989,189.193 129.170,187.863 132.925 C 187.541 133.834,186.800 133.428,186.800 132.342 C 186.800 127.822,191.024 117.710,195.312 111.963 C 198.267 108.003,206.051 100.800,207.376 100.800 C 207.506 100.800,208.644 100.215,209.906 99.500 C 212.179 98.212,212.936 97.893,217.200 96.427 C 222.288 94.677,234.353 93.807,237.243 94.981 C 237.798 95.206,237.915 94.750,238.090 91.684 C 238.572 83.219,246.449 78.154,253.513 81.764 M253.471 152.027 C 268.477 154.077,282.395 165.046,287.569 178.900 C 287.972 179.978,290.000 180.569,290.000 179.608 C 290.000 178.601,293.406 177.442,296.400 177.431 C 308.302 177.387,311.769 192.664,301.124 198.249 C 299.862 198.912,297.143 199.044,292.000 198.695 L 290.600 198.600 290.278 201.200 C 289.701 205.865,287.098 214.289,284.036 221.400 C 283.847 221.840,280.004 229.670,275.496 238.800 C 267.969 254.047,265.609 258.943,264.217 262.200 C 263.935 262.860,263.471 263.940,263.186 264.600 C 261.508 268.478,258.929 276.445,258.381 279.441 C 258.176 280.563,257.616 282.363,257.136 283.441 L 256.265 285.400 255.910 284.200 C 255.357 282.337,256.585 267.203,257.580 263.600 C 257.793 262.830,258.157 261.120,258.388 259.800 C 258.620 258.480,259.064 256.320,259.376 255.000 C 259.687 253.680,260.233 251.268,260.589 249.641 C 260.945 248.013,261.407 246.360,261.618 245.967 C 261.828 245.574,262.000 244.928,262.000 244.532 C 262.000 243.905,263.593 237.735,265.391 231.400 C 271.316 210.518,272.155 194.750,267.925 183.800 C 262.159 168.873,247.722 157.614,232.500 156.171 C 229.232 155.862,229.069 155.707,230.903 154.656 C 235.175 152.207,245.759 150.974,253.471 152.027 M69.748 189.468 C 72.262 190.973,76.286 193.542,77.000 194.098 C 77.220 194.269,78.120 194.960,79.000 195.633 C 85.016 200.234,90.029 204.814,102.151 216.787 C 108.283 222.844,113.503 227.984,113.751 228.210 C 113.998 228.435,115.820 230.037,117.800 231.769 C 119.780 233.501,121.932 235.387,122.582 235.959 C 125.275 238.332,135.035 244.794,135.938 244.802 C 136.082 244.804,136.740 245.088,137.400 245.435 C 147.266 250.615,162.674 250.215,173.917 244.486 C 180.561 241.101,185.205 237.286,189.600 231.600 C 191.440 229.220,191.864 229.041,191.684 230.718 C 191.182 235.404,189.622 239.741,185.642 247.511 C 182.175 254.280,173.346 261.593,163.800 265.600 C 158.297 267.911,147.528 269.304,143.448 268.234 C 140.418 267.439,140.400 267.457,140.400 271.333 C 140.400 277.656,135.978 282.000,129.540 282.000 C 119.595 282.000,115.292 270.373,122.587 263.213 C 124.653 261.186,124.921 261.759,120.071 257.833 C 118.464 256.532,116.305 254.464,115.274 253.240 C 114.243 252.015,113.130 250.707,112.800 250.333 C 109.325 246.398,104.509 239.737,99.110 231.400 C 84.133 208.272,79.406 201.829,71.703 194.035 C 65.219 187.475,64.805 186.509,69.748 189.468 M236.413 206.887 C 245.082 215.075,250.697 229.169,249.844 240.600 C 249.253 248.524,246.025 258.574,242.960 262.031 C 242.652 262.379,242.400 262.810,242.400 262.990 C 242.400 263.170,241.770 264.086,241.000 265.026 C 239.253 267.158,239.225 266.996,241.551 268.175 C 252.155 273.549,248.789 288.800,237.000 288.800 C 231.616 288.800,226.400 284.406,226.400 279.871 C 226.400 278.228,225.411 277.751,223.699 278.568 C 216.389 282.054,203.525 284.120,184.800 284.815 C 179.410 285.015,174.030 285.364,172.845 285.590 C 171.660 285.815,169.230 286.001,167.445 286.003 C 159.607 286.010,144.267 288.512,137.062 290.958 C 133.876 292.040,132.604 291.263,135.300 289.883 C 136.015 289.517,137.770 288.571,139.200 287.780 C 140.630 286.990,143.510 285.627,145.600 284.752 C 147.690 283.876,149.760 282.994,150.200 282.791 C 151.238 282.312,154.271 281.238,155.800 280.808 C 156.460 280.622,157.630 280.250,158.400 279.980 C 160.608 279.208,162.763 278.538,166.000 277.618 C 167.650 277.149,169.900 276.508,171.000 276.193 C 172.100 275.878,173.990 275.355,175.200 275.030 C 182.153 273.163,183.974 272.662,185.600 272.169 C 186.590 271.868,188.750 271.236,190.400 270.763 C 200.727 267.801,210.578 263.814,215.120 260.757 C 216.066 260.121,216.935 259.600,217.050 259.600 C 219.277 259.600,228.402 249.364,231.492 243.400 C 237.071 232.633,237.654 216.627,232.830 206.663 C 231.010 202.903,232.279 202.982,236.413 206.887 M142.576 322.213 C 143.004 322.536,143.666 322.800,144.048 322.800 C 144.430 322.800,144.981 323.032,145.271 323.315 C 145.562 323.598,146.430 324.216,147.200 324.687 C 147.970 325.159,148.915 326.080,149.300 326.734 L 150.000 327.923 146.930 330.762 C 143.442 333.988,143.539 333.954,141.730 332.574 C 139.425 330.816,135.600 330.735,135.600 332.444 C 135.600 333.428,137.073 334.763,138.200 334.799 C 138.640 334.814,139.349 335.090,139.776 335.413 C 140.204 335.736,140.896 336.000,141.315 336.000 C 141.734 336.000,142.554 336.260,143.138 336.578 C 143.722 336.896,144.838 337.439,145.618 337.785 C 150.415 339.911,153.025 345.637,151.633 350.982 C 151.235 352.512,150.704 353.832,150.454 353.915 C 150.205 353.998,150.000 354.258,150.000 354.493 C 150.000 355.078,147.438 357.519,146.316 358.003 C 145.812 358.220,145.130 358.562,144.800 358.763 C 143.050 359.828,138.609 360.385,136.628 359.788 C 135.553 359.465,134.196 359.200,133.613 359.200 C 133.030 359.200,132.204 358.936,131.776 358.613 C 131.349 358.290,130.756 358.020,130.457 358.013 C 128.836 357.975,124.000 352.985,124.000 351.351 C 124.000 350.432,124.948 349.200,125.655 349.200 C 125.874 349.200,126.636 348.756,127.348 348.212 C 128.060 347.669,129.332 346.937,130.173 346.585 L 131.703 345.946 133.217 347.570 C 135.645 350.173,140.797 350.739,141.132 348.440 C 141.284 347.397,140.186 346.000,139.214 346.000 C 138.851 346.000,138.204 345.736,137.776 345.413 C 137.349 345.090,136.675 344.820,136.278 344.813 C 135.565 344.800,133.013 343.773,130.520 342.495 C 129.079 341.757,126.800 339.743,126.800 339.208 C 126.800 339.015,126.554 338.611,126.254 338.311 C 122.974 335.031,126.486 324.113,131.200 322.931 C 131.750 322.793,132.555 322.437,132.989 322.140 C 134.127 321.361,141.524 321.417,142.576 322.213 M173.600 322.200 C 173.874 322.530,174.504 322.800,175.000 322.800 C 175.496 322.800,176.126 323.070,176.400 323.400 C 176.674 323.730,177.075 324.000,177.291 324.000 C 178.021 324.000,180.198 326.099,180.468 327.063 C 180.719 327.960,176.742 332.800,175.754 332.800 C 175.594 332.800,175.173 333.062,174.819 333.383 C 174.247 333.900,174.027 333.827,172.859 332.736 C 171.075 331.068,167.484 330.810,167.268 332.333 C 167.117 333.400,168.205 334.800,169.186 334.800 C 169.549 334.800,170.196 335.064,170.624 335.387 C 171.051 335.710,171.855 335.980,172.411 335.987 C 172.967 335.994,173.777 336.246,174.211 336.546 C 174.645 336.846,175.450 337.231,176.000 337.400 C 180.292 338.718,183.409 343.765,183.111 348.912 C 183.010 350.651,182.743 352.192,182.518 352.337 C 182.292 352.482,181.976 353.023,181.814 353.539 C 181.467 354.653,178.740 357.471,177.484 358.015 C 176.998 358.226,176.330 358.556,176.000 358.749 C 174.125 359.847,169.811 360.401,167.836 359.799 C 166.756 359.470,165.294 359.200,164.585 359.200 C 163.877 359.200,163.074 358.930,162.800 358.600 C 162.526 358.270,161.992 358.000,161.612 358.000 C 161.233 358.000,160.490 357.627,159.961 357.171 C 157.081 354.687,156.000 353.617,156.000 353.249 C 156.000 353.024,155.705 352.674,155.343 352.472 C 154.366 351.926,154.964 350.086,156.311 349.495 C 156.910 349.231,157.490 348.918,157.600 348.799 C 158.211 348.135,161.883 346.000,162.414 346.000 C 162.591 346.000,163.461 346.717,164.346 347.593 C 167.496 350.712,173.937 350.451,171.960 347.284 C 171.507 346.559,168.139 344.800,167.204 344.800 C 166.743 344.800,165.774 344.404,162.200 342.756 C 159.894 341.693,158.217 339.978,156.837 337.272 C 155.808 335.256,155.661 330.601,156.587 329.376 C 156.910 328.949,157.180 328.349,157.187 328.041 C 157.206 327.228,159.953 324.000,160.627 324.000 C 160.942 324.000,161.200 323.823,161.200 323.608 C 161.200 323.392,161.695 323.095,162.300 322.948 C 162.905 322.801,163.755 322.437,164.189 322.140 C 165.358 321.340,172.926 321.388,173.600 322.200 M198.106 322.100 C 198.688 322.542,198.778 324.051,198.882 335.081 L 199.000 347.561 200.520 348.953 C 203.096 351.311,206.058 351.368,208.373 349.104 C 210.355 347.167,210.400 346.837,210.400 334.254 C 210.400 320.494,209.958 321.600,215.457 321.600 C 221.184 321.600,220.801 320.638,220.797 334.989 C 220.794 346.733,220.424 351.268,219.376 352.427 C 219.059 352.777,218.800 353.191,218.800 353.347 C 218.800 354.137,214.123 358.000,213.168 358.000 C 212.799 358.000,212.274 358.270,212.000 358.600 C 211.726 358.930,211.089 359.200,210.583 359.200 C 210.078 359.200,208.560 359.483,207.210 359.829 C 203.860 360.687,194.400 358.676,194.400 357.106 C 194.400 356.938,194.183 356.800,193.917 356.800 C 193.281 356.800,190.400 353.976,190.400 353.352 C 190.400 353.085,190.191 352.797,189.935 352.712 C 187.945 352.048,186.905 324.295,188.800 322.400 C 189.767 321.433,196.923 321.202,198.106 322.100 M247.346 322.202 C 247.976 322.531,248.794 322.800,249.164 322.800 C 250.375 322.800,254.800 326.752,254.800 327.833 C 254.800 328.108,255.005 328.402,255.256 328.485 C 256.612 328.937,256.490 336.803,255.090 339.200 C 252.577 343.503,250.243 344.737,243.911 345.111 L 239.000 345.400 238.889 351.772 C 238.822 355.640,238.607 358.351,238.341 358.672 C 237.883 359.223,229.539 359.458,228.233 358.957 C 227.129 358.534,227.289 323.511,228.400 322.400 C 229.466 321.334,245.363 321.169,247.346 322.202 M238.984 331.698 C 238.856 332.030,238.808 333.179,238.876 334.251 L 239.000 336.200 242.146 336.150 C 245.594 336.094,245.984 335.851,245.994 333.749 C 246.002 332.007,245.216 331.523,242.002 331.293 C 239.758 331.132,239.171 331.211,238.984 331.698 " stroke="none" fill="#141c2c" fill-rule="evenodd"></path><path id="path3" d="M122.300 75.831 C 122.135 75.997,122.000 76.472,122.000 76.887 C 122.000 77.301,121.715 78.191,121.367 78.864 C 121.019 79.537,120.924 79.971,121.156 79.827 C 121.803 79.428,122.885 76.932,122.734 76.188 C 122.660 75.825,122.465 75.664,122.300 75.831 M122.924 81.000 C 122.926 82.320,123.001 82.812,123.090 82.093 C 123.179 81.374,123.177 80.294,123.086 79.693 C 122.995 79.092,122.922 79.680,122.924 81.000 M122.528 86.000 C 122.528 87.430,122.601 88.015,122.689 87.300 C 122.778 86.585,122.778 85.415,122.689 84.700 C 122.601 83.985,122.528 84.570,122.528 86.000 M108.493 154.000 C 108.493 154.770,108.575 155.085,108.676 154.700 C 108.776 154.315,108.776 153.685,108.676 153.300 C 108.575 152.915,108.493 153.230,108.493 154.000 M66.400 188.335 C 66.400 188.520,68.786 191.085,71.703 194.035 C 79.406 201.829,84.133 208.272,99.110 231.400 C 104.509 239.737,109.325 246.398,112.800 250.333 C 113.130 250.707,114.243 252.015,115.274 253.240 C 116.305 254.464,118.464 256.532,120.071 257.833 C 124.921 261.759,124.653 261.186,122.587 263.213 C 115.292 270.373,119.595 282.000,129.540 282.000 C 135.978 282.000,140.400 277.656,140.400 271.333 C 140.400 267.457,140.418 267.439,143.448 268.234 C 147.528 269.304,158.297 267.911,163.800 265.600 C 172.263 262.047,177.872 257.849,183.079 251.172 C 184.182 249.757,185.335 248.110,185.642 247.511 C 189.622 239.741,191.182 235.404,191.684 230.718 C 191.864 229.041,191.440 229.220,189.600 231.600 C 185.205 237.286,180.561 241.101,173.917 244.486 C 162.674 250.215,147.266 250.615,137.400 245.435 C 136.740 245.088,136.082 244.804,135.938 244.802 C 135.035 244.794,125.275 238.332,122.582 235.959 C 121.932 235.387,119.780 233.501,117.800 231.769 C 115.820 230.037,113.998 228.435,113.751 228.210 C 113.503 227.984,108.283 222.844,102.151 216.787 C 90.029 204.814,85.016 200.234,79.000 195.633 C 78.120 194.960,77.220 194.269,77.000 194.098 C 76.286 193.542,72.262 190.973,69.748 189.468 C 67.303 188.005,66.400 187.699,66.400 188.335 M120.200 194.000 C 121.506 195.320,122.665 196.400,122.775 196.400 C 122.885 196.400,121.906 195.320,120.600 194.000 C 119.294 192.680,118.135 191.600,118.025 191.600 C 117.915 191.600,118.894 192.680,120.200 194.000 M98.000 196.125 C 98.000 196.194,98.585 196.779,99.300 197.425 L 100.600 198.600 99.425 197.300 C 98.330 196.088,98.000 195.816,98.000 196.125 M147.000 208.400 C 145.436 209.436,145.992 209.437,147.690 208.401 C 148.411 207.962,148.820 207.604,148.600 207.604 C 148.380 207.605,147.660 207.963,147.000 208.400 M129.300 211.496 C 130.565 211.575,132.635 211.575,133.900 211.496 C 135.165 211.416,134.130 211.351,131.600 211.351 C 129.070 211.351,128.035 211.416,129.300 211.496 " stroke="none" fill="#43ba3c" fill-rule="evenodd"></path><path id="path4" d="M244.628 70.755 C 244.507 70.950,243.732 71.225,242.904 71.367 C 242.077 71.509,240.770 71.867,240.000 72.162 C 238.310 72.810,235.622 73.488,231.600 74.280 C 225.232 75.534,225.147 75.559,227.600 75.406 C 230.057 75.254,233.291 74.634,236.000 73.796 C 236.990 73.490,238.565 73.118,239.500 72.969 C 240.435 72.820,241.200 72.562,241.200 72.396 C 241.200 71.951,243.182 71.648,243.434 72.054 C 243.552 72.245,243.232 72.563,242.724 72.761 C 242.216 72.958,241.158 73.560,240.373 74.098 C 239.588 74.636,238.463 75.198,237.873 75.346 C 237.283 75.494,236.800 75.792,236.800 76.008 C 236.800 76.223,236.537 76.400,236.215 76.400 C 235.894 76.400,234.303 77.030,232.681 77.800 C 231.059 78.570,229.472 79.200,229.155 79.200 C 228.838 79.200,228.223 79.430,227.789 79.711 C 227.355 79.992,225.650 80.651,224.000 81.175 C 222.350 81.699,220.433 82.369,219.740 82.664 C 219.046 82.959,218.146 83.201,217.740 83.202 C 217.333 83.204,216.484 83.474,215.854 83.802 C 215.224 84.131,214.427 84.400,214.082 84.400 C 213.738 84.400,212.274 84.773,210.828 85.228 C 209.383 85.684,207.210 86.327,206.000 86.658 C 204.790 86.989,202.990 87.500,202.000 87.793 C 201.010 88.087,199.436 88.449,198.502 88.598 C 197.568 88.748,196.712 89.018,196.600 89.200 C 196.488 89.382,195.650 89.656,194.739 89.810 C 193.827 89.964,192.484 90.340,191.754 90.645 C 191.023 90.950,190.015 91.201,189.513 91.202 C 189.011 91.204,188.084 91.474,187.454 91.802 C 186.824 92.131,185.924 92.401,185.454 92.402 C 184.984 92.404,184.117 92.657,183.527 92.965 C 182.937 93.273,181.857 93.656,181.129 93.816 C 180.400 93.976,179.262 94.335,178.602 94.613 C 177.941 94.891,176.590 95.424,175.600 95.796 C 172.947 96.795,167.782 99.214,163.283 101.566 C 158.484 104.076,149.856 112.710,147.982 116.879 C 147.754 117.385,147.038 118.790,146.391 120.000 C 145.743 121.210,145.210 122.479,145.207 122.820 C 145.203 123.161,145.042 123.611,144.849 123.820 C 141.983 126.919,141.097 143.815,143.443 150.613 C 143.749 151.501,144.000 152.536,144.000 152.915 C 144.000 153.293,144.360 154.275,144.800 155.096 C 147.312 159.782,143.845 157.878,139.163 152.000 C 138.199 150.790,137.304 149.710,137.173 149.600 C 136.783 149.273,134.000 144.385,134.000 144.028 C 134.000 143.846,133.730 143.474,133.400 143.200 C 133.070 142.926,132.800 142.436,132.800 142.111 C 132.800 141.787,132.531 140.954,132.203 140.260 C 128.954 133.405,128.267 119.695,130.808 112.400 C 132.332 108.024,132.994 106.362,134.073 104.200 C 135.543 101.256,138.435 96.800,138.876 96.800 C 139.996 96.800,138.969 95.227,137.308 94.397 C 133.002 92.247,131.200 89.400,131.200 84.750 C 131.200 71.633,149.632 70.608,151.962 83.596 C 152.250 85.202,153.055 85.530,154.700 84.711 C 155.682 84.222,157.697 83.561,163.600 81.791 C 164.590 81.495,166.390 81.136,167.600 80.994 C 168.810 80.852,170.340 80.557,171.000 80.339 C 171.660 80.120,174.360 79.776,177.000 79.575 C 179.640 79.373,183.150 79.034,184.800 78.821 C 186.450 78.609,190.140 78.418,193.000 78.397 C 195.860 78.376,200.180 78.189,202.600 77.980 C 205.020 77.771,208.620 77.498,210.600 77.373 C 216.018 77.031,221.583 76.455,223.600 76.027 C 225.936 75.531,222.836 75.668,216.600 76.337 C 214.400 76.573,207.200 77.057,200.600 77.414 C 183.914 78.314,172.096 79.305,169.800 79.996 C 169.140 80.194,167.700 80.472,166.600 80.613 C 165.500 80.754,163.880 81.103,163.000 81.389 C 162.120 81.674,160.050 82.320,158.400 82.823 C 156.750 83.325,154.996 83.996,154.503 84.312 C 153.293 85.089,152.402 84.667,152.391 83.313 C 152.340 76.817,142.675 71.595,136.666 74.816 C 132.250 77.183,130.639 80.106,130.868 85.339 C 131.087 90.344,132.353 92.077,138.356 95.591 C 138.790 95.845,138.518 96.430,137.116 98.258 C 133.659 102.767,130.578 109.803,129.529 115.578 C 129.307 116.800,128.973 118.610,128.787 119.600 C 127.532 126.261,129.581 136.662,133.745 144.771 C 137.457 151.998,146.800 161.892,146.800 158.595 C 146.800 158.262,146.629 157.677,146.419 157.295 C 139.549 144.757,141.998 124.617,151.895 112.270 C 156.518 106.502,160.513 103.435,168.400 99.598 C 170.270 98.688,172.113 97.776,172.495 97.572 C 174.691 96.396,189.327 91.700,198.000 89.388 C 199.430 89.007,201.500 88.455,202.600 88.161 C 203.700 87.867,205.845 87.261,207.367 86.814 C 208.889 86.366,210.454 86.000,210.844 86.000 C 211.234 86.000,211.651 85.840,211.772 85.645 C 211.893 85.450,212.668 85.175,213.496 85.033 C 214.323 84.891,215.630 84.535,216.400 84.242 C 217.170 83.949,219.870 83.040,222.400 82.223 C 224.930 81.407,227.540 80.499,228.200 80.207 C 228.860 79.915,231.020 78.989,233.000 78.149 C 238.802 75.687,246.352 71.486,246.387 70.700 C 246.405 70.278,244.894 70.325,244.628 70.755 M239.400 152.186 C 234.296 153.097,229.612 154.753,229.603 155.648 C 229.601 155.785,230.905 156.020,232.500 156.171 C 255.903 158.389,272.667 179.919,270.449 204.908 C 269.803 212.188,267.665 223.384,265.391 231.400 C 263.593 237.735,262.000 243.905,262.000 244.532 C 262.000 244.928,261.828 245.574,261.618 245.967 C 261.407 246.360,260.945 248.013,260.589 249.641 C 260.233 251.268,259.687 253.680,259.376 255.000 C 259.064 256.320,258.620 258.480,258.388 259.800 C 258.157 261.120,257.793 262.830,257.580 263.600 C 256.585 267.203,255.357 282.337,255.910 284.200 L 256.265 285.400 257.136 283.441 C 257.616 282.363,258.176 280.563,258.381 279.441 C 258.929 276.445,261.508 268.478,263.186 264.600 C 263.471 263.940,263.935 262.860,264.217 262.200 C 265.609 258.943,267.969 254.047,275.496 238.800 C 280.004 229.670,283.847 221.840,284.036 221.400 C 287.098 214.289,289.701 205.865,290.278 201.200 L 290.600 198.600 292.000 198.695 C 297.143 199.044,299.862 198.912,301.124 198.249 C 311.769 192.664,308.302 177.387,296.400 177.431 C 293.406 177.442,290.000 178.601,290.000 179.608 C 290.000 180.569,287.972 179.978,287.569 178.900 C 280.619 160.289,259.529 148.593,239.400 152.186 M232.159 204.163 C 232.028 204.505,232.330 205.629,232.830 206.663 C 237.654 216.627,237.071 232.633,231.492 243.400 C 228.402 249.364,219.277 259.600,217.050 259.600 C 216.935 259.600,216.066 260.121,215.120 260.757 C 210.578 263.814,200.727 267.801,190.400 270.763 C 188.750 271.236,186.590 271.868,185.600 272.169 C 183.974 272.662,182.153 273.163,175.200 275.030 C 173.990 275.355,172.100 275.878,171.000 276.193 C 169.900 276.508,167.650 277.149,166.000 277.618 C 162.763 278.538,160.608 279.208,158.400 279.980 C 157.630 280.250,156.460 280.622,155.800 280.808 C 154.271 281.238,151.238 282.312,150.200 282.791 C 149.760 282.994,147.690 283.876,145.600 284.752 C 143.510 285.627,140.630 286.990,139.200 287.780 C 137.770 288.571,136.015 289.517,135.300 289.883 C 132.604 291.263,133.876 292.040,137.062 290.958 C 141.696 289.385,146.608 288.314,153.400 287.394 C 162.045 286.224,164.244 286.006,167.445 286.003 C 169.230 286.001,171.660 285.815,172.845 285.590 C 174.030 285.364,179.410 285.015,184.800 284.815 C 203.525 284.120,216.389 282.054,223.699 278.568 C 225.411 277.751,226.400 278.228,226.400 279.871 C 226.400 284.406,231.616 288.800,237.000 288.800 C 248.789 288.800,252.155 273.549,241.551 268.175 C 239.225 266.996,239.253 267.158,241.000 265.026 C 241.770 264.086,242.400 263.170,242.400 262.990 C 242.400 262.810,242.652 262.379,242.960 262.031 C 249.749 254.372,251.791 234.756,247.022 223.000 C 243.550 214.438,233.233 201.364,232.159 204.163 M239.740 212.000 C 240.582 212.990,241.527 214.385,241.841 215.100 C 242.154 215.815,242.588 216.400,242.805 216.400 C 243.022 216.400,243.200 216.749,243.200 217.176 C 243.200 217.603,243.369 218.057,243.575 218.184 C 244.067 218.489,246.000 222.586,246.000 223.326 C 246.000 223.643,246.270 224.126,246.600 224.400 C 246.930 224.674,247.201 225.550,247.202 226.349 C 247.204 227.147,247.496 228.340,247.852 229.000 C 248.827 230.809,248.842 246.022,247.870 247.880 C 247.501 248.584,247.200 249.867,247.200 250.731 C 247.200 251.640,246.947 252.512,246.600 252.800 C 246.270 253.074,246.000 253.541,246.000 253.838 C 246.000 254.366,244.652 257.607,243.937 258.800 C 243.739 259.130,243.471 259.715,243.342 260.100 C 243.212 260.485,242.960 260.800,242.780 260.800 C 242.601 260.800,242.327 261.205,242.171 261.700 C 242.016 262.195,241.383 263.120,240.764 263.756 C 238.477 266.106,238.979 269.200,241.648 269.200 C 242.556 269.200,245.525 272.163,245.829 273.373 C 245.966 273.920,246.331 274.577,246.639 274.833 C 247.440 275.497,247.410 280.533,246.600 281.343 C 246.270 281.673,246.000 282.223,246.000 282.564 C 246.000 283.228,242.787 286.791,242.169 286.814 C 241.966 286.821,241.080 287.175,240.200 287.600 C 237.416 288.945,235.540 288.603,230.335 285.805 C 229.931 285.588,229.600 285.177,229.600 284.893 C 229.600 284.608,229.335 284.273,229.011 284.149 C 228.687 284.024,228.308 283.317,228.169 282.576 C 228.030 281.835,227.665 281.020,227.358 280.765 C 227.051 280.510,226.800 279.709,226.800 278.984 C 226.800 278.260,226.586 277.595,226.325 277.508 C 225.571 277.257,222.345 277.845,222.059 278.285 C 221.917 278.505,221.089 278.815,220.220 278.975 C 219.352 279.135,218.277 279.521,217.831 279.833 C 217.386 280.145,216.265 280.400,215.340 280.400 C 214.414 280.400,213.417 280.640,213.123 280.934 C 212.805 281.253,211.154 281.569,209.027 281.719 C 207.068 281.857,205.361 282.140,205.233 282.346 C 205.105 282.553,202.125 282.856,198.611 283.019 C 194.809 283.195,191.695 283.535,190.923 283.858 C 189.946 284.266,187.096 284.400,179.373 284.400 C 171.326 284.400,168.850 284.523,167.860 284.973 C 167.004 285.363,164.728 285.588,160.757 285.677 C 157.283 285.755,154.687 285.988,154.357 286.251 C 154.050 286.495,152.360 286.793,150.600 286.913 C 148.840 287.034,146.731 287.417,145.913 287.766 C 145.095 288.115,143.713 288.400,142.841 288.400 C 141.967 288.400,140.988 288.669,140.657 289.000 C 140.327 289.330,139.459 289.575,138.729 289.546 C 137.747 289.505,137.641 289.445,138.324 289.315 C 138.833 289.217,139.347 288.882,139.467 288.569 C 139.587 288.256,139.981 287.999,140.343 287.997 C 140.704 287.996,141.540 287.637,142.200 287.200 C 142.860 286.763,143.693 286.404,144.051 286.403 C 144.409 286.401,144.926 286.130,145.200 285.800 C 145.474 285.470,146.113 285.200,146.620 285.200 C 147.128 285.200,147.813 284.930,148.143 284.600 C 148.473 284.270,149.026 284.000,149.373 284.000 C 149.719 284.000,150.675 283.640,151.496 283.200 C 152.316 282.760,153.361 282.400,153.818 282.400 C 154.274 282.400,154.996 282.136,155.424 281.813 C 155.851 281.490,156.763 281.220,157.451 281.213 C 158.139 281.206,158.926 280.930,159.200 280.600 C 159.474 280.270,160.261 279.994,160.949 279.986 C 161.637 279.979,162.920 279.625,163.800 279.200 C 164.680 278.775,165.963 278.421,166.651 278.414 C 167.339 278.406,168.126 278.130,168.400 277.800 C 168.678 277.465,169.550 277.200,170.373 277.200 C 171.184 277.200,172.196 276.936,172.624 276.613 C 173.051 276.290,174.030 276.019,174.800 276.010 C 175.570 276.002,176.707 275.731,177.326 275.408 C 177.945 275.085,179.337 274.703,180.419 274.560 C 181.501 274.416,182.591 274.052,182.842 273.749 C 183.100 273.438,184.049 273.200,185.029 273.200 C 186.068 273.200,186.888 272.982,187.080 272.654 C 187.259 272.349,188.344 272.021,189.543 271.909 C 190.721 271.799,191.801 271.532,191.943 271.315 C 192.084 271.099,192.988 270.798,193.951 270.648 C 194.914 270.497,196.079 270.110,196.540 269.787 C 197.001 269.464,197.856 269.200,198.440 269.200 C 199.024 269.200,199.726 268.930,200.000 268.600 C 200.274 268.270,200.976 268.000,201.560 268.000 C 202.144 268.000,202.977 267.753,203.411 267.451 C 203.845 267.149,204.785 266.775,205.500 266.619 C 206.215 266.464,206.800 266.179,206.800 265.986 C 206.800 265.794,207.418 265.520,208.172 265.379 C 208.927 265.237,209.641 264.869,209.760 264.561 C 209.878 264.252,210.436 264.000,211.000 264.000 C 211.564 264.000,212.129 263.730,212.255 263.400 C 212.382 263.070,212.799 262.800,213.182 262.800 C 213.564 262.800,214.293 262.440,214.800 262.000 C 215.307 261.560,215.889 261.200,216.092 261.200 C 217.883 261.200,229.600 249.825,229.600 248.086 C 229.600 247.866,229.870 247.582,230.200 247.455 C 230.530 247.329,230.800 246.870,230.800 246.436 C 230.800 246.002,230.974 245.540,231.187 245.408 C 231.714 245.082,233.600 241.277,233.600 240.539 C 233.600 240.211,233.870 239.673,234.200 239.343 C 234.530 239.013,234.800 238.148,234.800 237.420 C 234.800 236.693,235.044 235.896,235.342 235.648 C 235.652 235.391,235.984 234.008,236.117 232.419 C 236.245 230.891,236.541 229.283,236.775 228.847 C 237.310 227.847,237.335 219.800,236.806 218.812 C 236.590 218.407,236.293 216.754,236.147 215.138 C 236.002 213.522,235.639 211.845,235.341 211.411 C 235.043 210.977,234.800 210.054,234.800 209.360 C 234.800 208.666,234.530 207.874,234.200 207.600 C 233.870 207.326,233.600 206.728,233.600 206.272 C 233.600 205.408,236.184 207.818,239.740 212.000 M132.989 322.140 C 132.555 322.437,131.750 322.793,131.200 322.931 C 126.486 324.113,122.974 335.031,126.254 338.311 C 126.554 338.611,126.800 339.015,126.800 339.208 C 126.800 339.743,129.079 341.757,130.520 342.495 C 133.013 343.773,135.565 344.800,136.278 344.813 C 136.675 344.820,137.349 345.090,137.776 345.413 C 138.204 345.736,138.851 346.000,139.214 346.000 C 140.186 346.000,141.284 347.397,141.132 348.440 C 140.797 350.739,135.645 350.173,133.217 347.570 L 131.703 345.946 130.173 346.585 C 129.332 346.937,128.060 347.669,127.348 348.212 C 126.636 348.756,125.874 349.200,125.655 349.200 C 124.948 349.200,124.000 350.432,124.000 351.351 C 124.000 352.985,128.836 357.975,130.457 358.013 C 130.756 358.020,131.349 358.290,131.776 358.613 C 132.204 358.936,133.030 359.200,133.613 359.200 C 134.196 359.200,135.553 359.465,136.628 359.788 C 138.609 360.385,143.050 359.828,144.800 358.763 C 145.130 358.562,145.812 358.220,146.316 358.003 C 147.438 357.519,150.000 355.078,150.000 354.493 C 150.000 354.258,150.205 353.998,150.454 353.915 C 150.704 353.832,151.235 352.512,151.633 350.982 C 153.025 345.637,150.415 339.911,145.618 337.785 C 144.838 337.439,143.722 336.896,143.138 336.578 C 142.554 336.260,141.734 336.000,141.315 336.000 C 140.896 336.000,140.204 335.736,139.776 335.413 C 139.349 335.090,138.640 334.814,138.200 334.799 C 137.073 334.763,135.600 333.428,135.600 332.444 C 135.600 330.735,139.425 330.816,141.730 332.574 C 143.539 333.954,143.442 333.988,146.930 330.762 L 150.000 327.923 149.300 326.734 C 148.915 326.080,147.970 325.159,147.200 324.687 C 146.430 324.216,145.562 323.598,145.271 323.315 C 144.981 323.032,144.430 322.800,144.048 322.800 C 143.666 322.800,143.004 322.536,142.576 322.213 C 141.524 321.417,134.127 321.361,132.989 322.140 M164.189 322.140 C 163.755 322.437,162.905 322.801,162.300 322.948 C 161.695 323.095,161.200 323.392,161.200 323.608 C 161.200 323.823,160.942 324.000,160.627 324.000 C 159.953 324.000,157.206 327.228,157.187 328.041 C 157.180 328.349,156.910 328.949,156.587 329.376 C 155.661 330.601,155.808 335.256,156.837 337.272 C 158.217 339.978,159.894 341.693,162.200 342.756 C 165.774 344.404,166.743 344.800,167.204 344.800 C 168.139 344.800,171.507 346.559,171.960 347.284 C 173.937 350.451,167.496 350.712,164.346 347.593 C 163.461 346.717,162.591 346.000,162.414 346.000 C 161.883 346.000,158.211 348.135,157.600 348.799 C 157.490 348.918,156.910 349.231,156.311 349.495 C 154.964 350.086,154.366 351.926,155.343 352.472 C 155.705 352.674,156.000 353.024,156.000 353.249 C 156.000 353.617,157.081 354.687,159.961 357.171 C 160.490 357.627,161.233 358.000,161.612 358.000 C 161.992 358.000,162.526 358.270,162.800 358.600 C 163.074 358.930,163.877 359.200,164.585 359.200 C 165.294 359.200,166.756 359.470,167.836 359.799 C 169.811 360.401,174.125 359.847,176.000 358.749 C 176.330 358.556,176.998 358.226,177.484 358.015 C 178.740 357.471,181.467 354.653,181.814 353.539 C 181.976 353.023,182.292 352.482,182.518 352.337 C 182.743 352.192,183.010 350.651,183.111 348.912 C 183.409 343.765,180.292 338.718,176.000 337.400 C 175.450 337.231,174.645 336.846,174.211 336.546 C 173.777 336.246,172.967 335.994,172.411 335.987 C 171.855 335.980,171.051 335.710,170.624 335.387 C 170.196 335.064,169.549 334.800,169.186 334.800 C 168.205 334.800,167.117 333.400,167.268 332.333 C 167.484 330.810,171.075 331.068,172.859 332.736 C 174.027 333.827,174.247 333.900,174.819 333.383 C 175.173 333.062,175.594 332.800,175.754 332.800 C 176.742 332.800,180.719 327.960,180.468 327.063 C 180.198 326.099,178.021 324.000,177.291 324.000 C 177.075 324.000,176.674 323.730,176.400 323.400 C 176.126 323.070,175.496 322.800,175.000 322.800 C 174.504 322.800,173.874 322.530,173.600 322.200 C 172.926 321.388,165.358 321.340,164.189 322.140 M188.800 322.400 C 186.905 324.295,187.945 352.048,189.935 352.712 C 190.191 352.797,190.400 353.085,190.400 353.352 C 190.400 353.976,193.281 356.800,193.917 356.800 C 194.183 356.800,194.400 356.938,194.400 357.106 C 194.400 358.676,203.860 360.687,207.210 359.829 C 208.560 359.483,210.078 359.200,210.583 359.200 C 211.089 359.200,211.726 358.930,212.000 358.600 C 212.274 358.270,212.799 358.000,213.168 358.000 C 214.123 358.000,218.800 354.137,218.800 353.347 C 218.800 353.191,219.059 352.777,219.376 352.427 C 220.424 351.268,220.794 346.733,220.797 334.989 C 220.801 320.638,221.184 321.600,215.457 321.600 C 209.958 321.600,210.400 320.494,210.400 334.254 C 210.400 346.837,210.355 347.167,208.373 349.104 C 206.058 351.368,203.096 351.311,200.520 348.953 L 199.000 347.561 198.882 335.081 C 198.778 324.051,198.688 322.542,198.106 322.100 C 196.923 321.202,189.767 321.433,188.800 322.400 M228.400 322.400 C 227.289 323.511,227.129 358.534,228.233 358.957 C 229.539 359.458,237.883 359.223,238.341 358.672 C 238.607 358.351,238.822 355.640,238.889 351.772 L 239.000 345.400 243.911 345.111 C 250.243 344.737,252.577 343.503,255.090 339.200 C 256.490 336.803,256.612 328.937,255.256 328.485 C 255.005 328.402,254.800 328.108,254.800 327.833 C 254.800 326.752,250.375 322.800,249.164 322.800 C 248.794 322.800,247.976 322.531,247.346 322.202 C 245.363 321.169,229.466 321.334,228.400 322.400 M142.288 322.748 C 148.948 325.048,150.096 327.108,146.537 330.370 C 143.604 333.057,143.349 333.147,141.907 332.013 C 139.243 329.917,135.200 330.107,135.200 332.328 C 135.200 333.870,138.655 336.356,140.878 336.414 C 141.165 336.421,142.120 336.775,143.000 337.200 C 143.880 337.625,144.806 337.979,145.057 337.986 C 145.947 338.013,149.423 341.529,150.305 343.295 C 156.686 356.072,137.476 365.218,126.659 354.554 C 124.238 352.167,123.911 349.600,126.027 349.600 C 126.194 349.600,127.287 348.970,128.456 348.200 C 131.085 346.469,131.298 346.469,133.080 348.198 C 136.025 351.059,140.968 351.422,141.788 348.838 C 142.378 346.980,140.746 345.766,135.000 343.787 C 127.972 341.366,125.795 338.812,125.808 333.000 C 125.825 324.757,133.780 319.808,142.288 322.748 M173.528 322.761 C 174.698 323.165,175.859 323.699,176.108 323.948 C 176.357 324.197,176.749 324.401,176.980 324.402 C 177.637 324.405,180.000 326.773,180.000 327.429 C 180.000 328.176,175.974 332.227,174.890 332.571 C 174.343 332.745,173.445 332.431,172.159 331.615 C 170.025 330.262,168.234 330.065,167.131 331.062 C 165.424 332.607,166.719 334.536,170.323 335.820 C 177.411 338.343,179.401 339.646,181.221 342.957 C 184.248 348.464,182.199 354.813,176.357 358.026 C 174.031 359.306,165.297 359.493,163.611 358.300 C 163.067 357.915,162.381 357.600,162.087 357.600 C 160.731 357.600,155.600 352.669,155.600 351.365 C 155.600 350.771,157.299 349.445,160.111 347.842 C 162.175 346.666,163.315 346.720,164.014 348.026 C 165.612 351.012,173.218 351.322,173.188 348.400 C 173.175 347.078,169.652 344.404,167.916 344.398 C 167.328 344.396,163.604 342.888,161.776 341.912 C 149.537 335.375,160.120 318.130,173.528 322.761 M197.920 322.880 C 198.271 323.231,198.400 326.462,198.400 334.920 C 198.400 347.712,198.510 348.369,200.949 350.107 C 202.628 351.304,206.511 351.366,208.023 350.220 C 210.645 348.233,210.581 348.584,210.800 335.000 L 211.000 322.600 215.167 322.485 C 218.232 322.401,219.421 322.507,219.661 322.885 C 220.409 324.064,220.038 349.679,219.248 351.400 C 214.480 361.789,195.234 362.004,189.984 351.727 C 188.861 349.528,188.176 325.113,189.185 323.228 C 189.710 322.247,196.996 321.956,197.920 322.880 M247.266 322.852 C 255.569 324.632,258.787 335.664,252.701 341.486 C 250.233 343.846,248.559 344.411,243.236 344.679 C 237.485 344.968,238.033 344.154,237.897 352.600 L 237.800 358.600 233.200 358.600 L 228.600 358.600 228.496 341.046 C 228.421 328.419,228.519 323.339,228.845 322.946 C 229.424 322.248,244.100 322.173,247.266 322.852 M238.500 331.248 C 237.984 331.776,237.813 335.048,238.243 336.167 C 238.622 337.156,244.384 337.065,245.636 336.052 C 246.776 335.128,246.904 332.733,245.868 331.697 C 244.976 330.805,239.273 330.457,238.500 331.248 M245.394 331.995 C 246.052 332.541,246.199 334.666,245.640 335.550 C 245.398 335.932,244.333 336.114,242.146 336.150 L 239.000 336.200 238.876 334.251 C 238.680 331.171,238.794 331.063,242.002 331.293 C 243.534 331.403,245.061 331.719,245.394 331.995 " stroke="none" fill="#752d88" fill-rule="evenodd"></path></g></svg>